<svg xmlns="http://www.w3.org/2000/svg" viewBox="0 0 32 32" width="32" height="32">
  <!-- Open Book Icon -->
  <g fill="none" stroke="#6a4c93" stroke-width="1.8" stroke-linecap="round" stroke-linejoin="round">
    <!-- Left page -->
    <path d="M16 7 C16 7 10 5 4 6 L4 26 C10 25 16 27 16 27"/>
    <!-- Right page -->
    <path d="M16 7 C16 7 22 5 28 6 L28 26 C22 25 16 27 16 27"/>
    <!-- Spine -->
    <line x1="16" y1="6" x2="16" y2="27"/>
    <!-- Left page lines -->
    <line x1="8" y1="11" x2="14" y2="10"/>
    <line x1="8" y1="15" x2="14" y2="14"/>
    <line x1="8" y1="19" x2="14" y2="18"/>
    <!-- Right page lines -->
    <line x1="18" y1="10" x2="24" y2="11"/>
    <line x1="18" y1="14" x2="24" y2="15"/>
    <line x1="18" y1="18" x2="24" y2="19"/>
  </g>
</svg>