<svg xmlns="http://www.w3.org/2000/svg" viewBox="0 0 32 32" width="32" height="32">
  <!-- Phone Icon -->
  <g fill="none" stroke="#6a4c93" stroke-width="1.8" stroke-linecap="round" stroke-linejoin="round">
    <!-- Phone handset -->
    <path d="M8 4 C8 4 6 4 5 6 L4 9 C4 10 5 12 9 15 C13 18 18 21 21 22 C24 23 25 22 25 22 L27 20 C28 19 28 18 27 17 L24 15 C23 14.5 22 15 21.5 15.5 L20 17 C20 17 18 16 16 14 C14 12 13 10 13 10 L14.5 8.5 C15 8 15.5 7 15 6 L13 3 C12.5 2 11.5 2 10.5 2.5 L8 4 Z"/>
  </g>
</svg>